<?xml version="1.0" encoding="iso-8859-1"?>
<!-- Generator: Adobe Illustrator 19.0.0, SVG Export Plug-In . SVG Version: 6.00 Build 0)  -->
<svg version="1.1" id="Capa_1" xmlns="http://www.w3.org/2000/svg" xmlns:xlink="http://www.w3.org/1999/xlink" x="0px" y="0px"
	 viewBox="0 0 490 490" style="enable-background:new 0 0 490 490;" xml:space="preserve">
<g>
	<g>
		<g>
			<rect x="127" y="164.9" width="237.2" height="269.5"/>
			<g>
				<path d="M156.5,77.8L156.5,77.8c-9.3,0-16.7-7.4-16.7-16.3V16.3c0-8.9,7.4-16.3,16.3-16.3h0.4c8.9,0,16.3,7.4,16.3,16.3v45.1
					C172.9,70.4,165.5,77.8,156.5,77.8z"/>
				<path d="M335,77.8L335,77.8c-9.3,0-16.7-7.4-16.7-16.3V16.3c0-8.9,7.4-16.3,16.3-16.3h0.4c8.9,0,16.3,7.4,16.3,16.3v45.1
					C351.4,70.4,344,77.8,335,77.8z"/>
				<path d="M370.8,38.9v22.6c0,19.8-16.3,36.2-36.2,36.2c-19.8,0-36.2-16.3-36.2-36.2V38.9H191.9v22.6c0,19.8-16.3,36.2-36.2,36.2
					s-36.2-16.3-36.2-36.2V38.9H69.4V490h351.2V38.9H370.8z M384.4,455.4H384H107.1V142.3h277.3V455.4z"/>
			</g>
		</g>
	</g>
</g>
<g>
</g>
<g>
</g>
<g>
</g>
<g>
</g>
<g>
</g>
<g>
</g>
<g>
</g>
<g>
</g>
<g>
</g>
<g>
</g>
<g>
</g>
<g>
</g>
<g>
</g>
<g>
</g>
<g>
</g>
</svg>
